<svg xmlns="http://www.w3.org/2000/svg" version="1.1" xmlns:xlink="http://www.w3.org/1999/xlink" xmlns:svgjs="http://svgjs.dev/svgjs" width="385.53369" height="449.93552"><svg version="1.1" id="SvgjsSvg1381" width="385.53369" height="449.93552" viewBox="0 0 385.53369 449.93554" sodipodi:docname="logo.svg" inkscape:version="1.2.2 (b0a8486541, 2022-12-01)" xmlns:inkscape="http://www.inkscape.org/namespaces/inkscape" xmlns:sodipodi="http://sodipodi.sourceforge.net/DTD/sodipodi-0.dtd" xmlns="http://www.w3.org/2000/svg" xmlns:svg="http://www.w3.org/2000/svg">
  <defs id="SvgjsDefs1380">
    <marker style="overflow:visible" id="SvgjsMarker1379" refX="0" refY="0" orient="auto-start-reverse" inkscape:stockid="TriangleStart" markerWidth="5" markerHeight="5" viewBox="0 0 5.3244081 6.1553851" inkscape:isstock="true" inkscape:collect="always" preserveAspectRatio="xMidYMid">
      <path transform="scale(0.5)" style="fill:context-stroke;fill-rule:evenodd;stroke:context-stroke;stroke-width:1pt" d="M 5.77,0 -2.88,5 V -5 Z" id="SvgjsPath1378"></path>
    </marker>
    <marker style="overflow:visible" id="SvgjsMarker1377" refX="0" refY="0" orient="auto-start-reverse" inkscape:stockid="TriangleStart" markerWidth="5" markerHeight="5" viewBox="0 0 5.3244081 6.1553851" inkscape:isstock="true" inkscape:collect="always" preserveAspectRatio="xMidYMid">
      <path transform="scale(0.5)" style="fill:context-stroke;fill-rule:evenodd;stroke:context-stroke;stroke-width:1pt" d="M 5.77,0 -2.88,5 V -5 Z" id="SvgjsPath1376"></path>
    </marker>
    <inkscape:path-effect effect="spiro" id="SvgjsInkscape:path-effect1375" is_visible="true" lpeversion="1"></inkscape:path-effect>
    <clipPath clipPathUnits="userSpaceOnUse" id="SvgjsClipPath1374">
      <g id="SvgjsG1373">
        <path d="M 0,0 H 124.44 V 143.85 H 0 Z" id="SvgjsPath1372"></path>
      </g>
    </clipPath>
    <clipPath clipPathUnits="userSpaceOnUse" id="SvgjsClipPath1371">
      <g id="SvgjsG1370">
        <path d="M 0,0 H 124.44 V 143.85 H 0 Z" id="SvgjsPath1369"></path>
      </g>
    </clipPath>
    <clipPath clipPathUnits="userSpaceOnUse" id="SvgjsClipPath1368">
      <g id="SvgjsG1367">
        <path d="M 0,0 H 124.44 V 143.85 H 0 Z" id="SvgjsPath1366"></path>
      </g>
    </clipPath>
    <clipPath clipPathUnits="userSpaceOnUse" id="SvgjsClipPath1365">
      <g id="SvgjsG1364">
        <path d="M 0,0 H 124.44 V 143.85 H 0 Z" id="SvgjsPath1363"></path>
      </g>
    </clipPath>
    <clipPath clipPathUnits="userSpaceOnUse" id="SvgjsClipPath1362">
      <g id="SvgjsG1361">
        <path d="M 0,0 H 124.44 V 143.85 H 0 Z" id="SvgjsPath1360"></path>
      </g>
    </clipPath>
    <clipPath clipPathUnits="userSpaceOnUse" id="SvgjsClipPath1359">
      <g id="SvgjsG1358">
        <path d="M 0,0 H 124.44 V 143.85 H 0 Z" id="SvgjsPath1357"></path>
      </g>
    </clipPath>
    <clipPath clipPathUnits="userSpaceOnUse" id="SvgjsClipPath1356">
      <g id="SvgjsG1355">
        <path d="M 0,0 H 124.44 V 143.85 H 0 Z" id="SvgjsPath1354"></path>
      </g>
    </clipPath>
    <clipPath clipPathUnits="userSpaceOnUse" id="SvgjsClipPath1353">
      <g id="SvgjsG1352">
        <path d="M 0,0 H 124.44 V 143.85 H 0 Z" id="SvgjsPath1351"></path>
      </g>
    </clipPath>
    <clipPath clipPathUnits="userSpaceOnUse" id="SvgjsClipPath1350">
      <g id="SvgjsG1349">
        <path d="M 0,0 H 124.44 V 143.85 H 0 Z" id="SvgjsPath1348"></path>
      </g>
    </clipPath>
    <clipPath clipPathUnits="userSpaceOnUse" id="SvgjsClipPath1347">
      <g id="SvgjsG1346">
        <path d="M 0,0 H 124.44 V 143.85 H 0 Z" id="SvgjsPath1345"></path>
      </g>
    </clipPath>
    <clipPath clipPathUnits="userSpaceOnUse" id="SvgjsClipPath1344">
      <g id="SvgjsG1343">
        <path d="M 0,0 H 124.44 V 143.85 H 0 Z" id="SvgjsPath1342"></path>
      </g>
    </clipPath>
  </defs>
  <sodipodi:namedview id="SvgjsSodipodi:namedview1341" pagecolor="#505050" bordercolor="#eeeeee" borderopacity="1" inkscape:showpageshadow="0" inkscape:pageopacity="0" inkscape:pagecheckerboard="0" inkscape:deskcolor="#d1d1d1" showgrid="false" inkscape:zoom="0.70710678" inkscape:cx="287.08535" inkscape:cy="645.58849" inkscape:window-width="2560" inkscape:window-height="1318" inkscape:window-x="0" inkscape:window-y="27" inkscape:window-maximized="1" inkscape:current-layer="layer2"></sodipodi:namedview>
  <g inkscape:groupmode="layer" id="SvgjsG1340" inkscape:label="Logo_with_Background" transform="translate(-94.318511,-419.2065)">
    <path sodipodi:type="star" style="fill:#fdfdfd;fill-opacity:1;stroke:#000db0;stroke-width:3.20047;stroke-linecap:square;stroke-linejoin:round;stroke-dasharray:none;stroke-opacity:1" id="SvgjsPath1339" inkscape:flatsided="true" sodipodi:sides="6" sodipodi:cx="-15.233307" sodipodi:cy="0.47818375" sodipodi:r1="109.47103" sodipodi:r2="94.804695" sodipodi:arg1="0.52613182" sodipodi:arg2="1.0497306" inkscape:rounded="0" inkscape:randomized="0" d="m 79.432436,55.453668 -94.943038,54.495192 -94.665738,-54.975481 0.27729,-109.470679 94.943038,-54.4952 94.665742,54.975488 z" transform="matrix(1.9966885,0,0,2.025443,317.50152,643.20574)" inkscape:export-filename="../../repositories/CrossTalkeR/man/figures/logo.svg" inkscape:export-xdpi="96" inkscape:export-ydpi="96"></path>
    <g id="SvgjsG1338" inkscape:label="blue_cell" transform="matrix(2.3321915,0,0,2.3321915,93.142532,419.98794)" inkscape:export-filename="../repositories/CrossTalkeR/docs/logo.svg" inkscape:export-xdpi="96" inkscape:export-ydpi="96">
      <ellipse style="opacity:1;fill:#99cbec;fill-opacity:1;stroke:#000000;stroke-width:0.502;stroke-dasharray:none;stroke-opacity:1" id="SvgjsEllipse1337" cx="27.255087" cy="49.755585" rx="8.1853466" ry="10.800383"></ellipse>
      <ellipse style="opacity:1;fill:#afc0c8;fill-opacity:1;stroke:#000000;stroke-width:0.36;stroke-dasharray:none;stroke-opacity:1" id="SvgjsEllipse1336" cx="26.915047" cy="49.140186" rx="6.5080156" ry="8.5446472"></ellipse>
    </g>
    <path style="fill:none;fill-opacity:1;stroke:#ff644e;stroke-width:5.86546;stroke-linecap:square;stroke-linejoin:round;stroke-dasharray:none;stroke-opacity:1;marker-end:url(#TriangleStart-6)" d="m 195.4383,709.15967 c 38.62809,9.57064 60.9129,-3.52557 76.38597,-16.55112" id="SvgjsPath1335" sodipodi:nodetypes="cc" inkscape:label="arrow_pink_red"></path>
    <g id="SvgjsG1334" inkscape:label="arrow_pink_green" transform="matrix(2.3321915,0,0,2.3321915,93.938142,419.90142)">
      <path style="display:inline;opacity:1;fill:none;fill-opacity:1;stroke:#ff644e;stroke-width:2.41125;stroke-linecap:square;stroke-linejoin:round;stroke-dasharray:none;stroke-opacity:1" d="m 28.834265,72.287343 c 3.378249,18.715956 12.519818,28.829477 26.199668,39.287237" id="SvgjsPath1333" sodipodi:nodetypes="cc" transform="matrix(1.3333333,0,0,-1.3333333,0,192)"></path>
      <path sodipodi:type="star" style="display:inline;opacity:1;fill:#ff644e;fill-opacity:1;stroke:#ff644e;stroke-width:1.88625;stroke-linecap:square;stroke-linejoin:miter;stroke-dasharray:none;stroke-opacity:1" id="SvgjsPath1332" inkscape:flatsided="true" sodipodi:sides="3" sodipodi:cx="65.88942" sodipodi:cy="38.255486" sodipodi:r1="9.5367556" sodipodi:r2="4.7683778" sodipodi:arg1="1.4477814" sodipodi:arg2="2.4949789" inkscape:rounded="0" inkscape:randomized="0" d="M 67.059626,47.720174 57.107656,34.53657 73.500977,32.509713 Z" transform="matrix(0.82533181,0.08499254,-0.18729206,0.96584838,26.264915,1.3687934)" inkscape:transform-center-x="-0.40342577" inkscape:transform-center-y="2.1691516"></path>
    </g>
    <g id="SvgjsG1331" style="display:inline" transform="matrix(3.1095885,0,0,-3.1095885,93.753362,867.73381)" inkscape:label="arrow_red_green">
      <path style="opacity:1;fill:#ff644e;fill-opacity:1;stroke:#ff644e;stroke-width:1.73625;stroke-linecap:square;stroke-linejoin:miter;stroke-dasharray:none;stroke-opacity:1" d="m 64.684598,72.211908 c -0.479983,8.052583 -0.766527,15.327102 -0.80888,23.966871" id="SvgjsPath1330" sodipodi:nodetypes="cc"></path>
      <path sodipodi:type="star" style="opacity:1;fill:#ff644e;fill-opacity:1;stroke:#ff644e;stroke-width:1.73625;stroke-linecap:square;stroke-linejoin:miter;stroke-dasharray:none;stroke-opacity:1" id="SvgjsPath1329" inkscape:flatsided="true" sodipodi:sides="3" sodipodi:cx="79.269882" sodipodi:cy="63.603817" sodipodi:r1="4.1975865" sodipodi:r2="2.0987935" sodipodi:arg1="-1.2941192" sodipodi:arg2="-0.24692168" inkscape:rounded="0" inkscape:randomized="0" d="m 80.416498,59.565871 1.77704,7.049917 -6.993927,-1.985996 z" transform="matrix(0.80862696,0.05155792,-0.08188414,-1.235436,5.0636199,172.47604)" inkscape:transform-center-x="0.83855221" inkscape:transform-center-y="-0.98491827"></path>
    </g>
    <g id="SvgjsG1328" inkscape:label="arrow_green_lilac" transform="matrix(2.3321915,0,0,2.3321915,93.753362,419.95305)">
      <path style="display:inline;opacity:1;fill:none;fill-opacity:1;stroke:#ff644e;stroke-width:1.36125;stroke-linecap:square;stroke-linejoin:miter;stroke-dasharray:none;stroke-opacity:1" d="M 74.593717,104.20867 C 89.265394,100.12885 96.084981,90.07413 100.55152,84.219338" id="SvgjsPath1327" sodipodi:nodetypes="cc" transform="matrix(1.3333333,0,0,-1.3333333,0,192)"></path>
      <path sodipodi:type="star" style="display:inline;opacity:1;fill:#ff644e;fill-opacity:1;stroke:#ff644e;stroke-width:1.36125;stroke-linecap:square;stroke-linejoin:miter;stroke-dasharray:none;stroke-opacity:1" id="SvgjsPath1326" inkscape:flatsided="true" sodipodi:sides="3" sodipodi:cx="135.77226" sodipodi:cy="74.96505" sodipodi:r1="3.7975962" sodipodi:r2="1.8987981" sodipodi:arg1="2.8788464" sodipodi:arg2="3.926044" inkscape:rounded="0" inkscape:randomized="0" d="m 132.105,75.951413 4.64668,-4.655489 1.70843,6.351888 z" transform="matrix(0.97777132,0.12112364,-0.0907345,1.3581,8.710793,-37.215701)" inkscape:transform-center-x="0.64528844" inkscape:transform-center-y="-0.44770837"></path>
    </g>
    <path style="fill:none;fill-opacity:1;stroke:#ff644e;stroke-width:5.86546;stroke-linecap:square;stroke-linejoin:round;stroke-dasharray:none;stroke-opacity:1;marker-end:url(#marker10209-6)" d="m 133.79272,684.45118 c -20.13292,-11.99913 -34.970838,-22.35261 5.2844,-26.181" id="SvgjsPath1325" sodipodi:nodetypes="cc" inkscape:label="arrow_pink"></path>
    <g id="SvgjsG1324" inkscape:label="arrow_red_lilac" transform="matrix(2.3321915,0,0,2.3321915,93.753362,419.95305)">
      <path style="opacity:1;fill:none;fill-opacity:1;stroke:#ff644e;stroke-width:2.515;stroke-linecap:square;stroke-linejoin:miter;stroke-dasharray:none;stroke-opacity:1" d="m 100.10163,127.71597 c 4.30447,1.92965 15.70068,5.56048 31.57756,-16.10614" id="SvgjsPath1323" sodipodi:nodetypes="cc"></path>
      <path sodipodi:type="star" style="display:inline;opacity:1;fill:#ff644e;fill-opacity:1;stroke:#ff644e;stroke-width:1.88625;stroke-linecap:square;stroke-linejoin:miter;stroke-dasharray:none;stroke-opacity:1" id="SvgjsPath1322" inkscape:flatsided="true" sodipodi:sides="3" sodipodi:cx="125.91822" sodipodi:cy="109.32863" sodipodi:r1="5.6176906" sodipodi:r2="2.7702363" sodipodi:arg1="1.4265575" sodipodi:arg2="2.4737551" inkscape:rounded="0" inkscape:randomized="0" d="m 126.7257,114.88798 -6.02576,-7.63973 9.62908,-1.3986 z" transform="matrix(0.96574466,-0.26070986,0.10838064,1.1912878,-1.2847334,13.276018)" inkscape:transform-center-x="1.2074079" inkscape:transform-center-y="0.097695556"></path>
    </g>
    <g id="SvgjsG1321" inkscape:label="blue_ligands" transform="matrix(2.3321915,0,0,2.3321915,93.753362,419.95305)">
      <rect style="display:inline;opacity:1;fill:#0074ba;fill-opacity:1;stroke:none;stroke-width:2.00887;stroke-linecap:square;stroke-linejoin:round;stroke-dasharray:none;stroke-opacity:1" id="SvgjsRect1320" width="3.8235571" height="3.846992" x="29.620113" y="-110.2076" transform="matrix(0.80590778,1.0622101,-0.79445778,1.0708009,0,192)"></rect>
      <rect style="display:inline;opacity:1;fill:#0074ba;fill-opacity:1;stroke:none;stroke-width:2.00887;stroke-linecap:square;stroke-linejoin:round;stroke-dasharray:none;stroke-opacity:1" id="SvgjsRect1319" width="3.8235571" height="3.846992" x="28.433638" y="-100.55289" transform="matrix(0.80590778,1.0622101,-0.79445778,1.0708009,0,192)"></rect>
      <rect style="display:inline;opacity:1;fill:#0074ba;fill-opacity:1;stroke:none;stroke-width:2.00887;stroke-linecap:square;stroke-linejoin:round;stroke-dasharray:none;stroke-opacity:1" id="SvgjsRect1318" width="3.8235571" height="3.846992" x="1.7844272" y="-136.69981" transform="matrix(0.80590778,1.0622101,-0.79445778,1.0708009,0,192)"></rect>
      <rect style="display:inline;opacity:1;fill:#0074ba;fill-opacity:1;stroke:none;stroke-width:1.84705;stroke-linecap:square;stroke-linejoin:round;stroke-dasharray:none;stroke-opacity:1" id="SvgjsRect1317" width="4.0551839" height="3.066386" x="90.091644" y="82.764481" transform="matrix(-0.16238773,-1.3234077,1.3092395,-0.25232841,0,192)"></rect>
      <rect style="display:inline;opacity:1;fill:#0074ba;fill-opacity:1;stroke:none;stroke-width:2.00887;stroke-linecap:square;stroke-linejoin:round;stroke-dasharray:none;stroke-opacity:1" id="SvgjsRect1316" width="3.8235571" height="3.846992" x="38.245884" y="-111.99999" transform="matrix(0.80590778,1.0622101,-0.79445778,1.0708009,0,192)"></rect>
      <rect style="display:inline;opacity:1;fill:#0074ba;fill-opacity:1;stroke:none;stroke-width:2.00887;stroke-linecap:square;stroke-linejoin:round;stroke-dasharray:none;stroke-opacity:1" id="SvgjsRect1315" width="3.8235571" height="3.846992" x="31.940542" y="-123.11389" transform="matrix(0.80590778,1.0622101,-0.79445778,1.0708009,0,192)"></rect>
    </g>
    <g id="SvgjsG1314" inkscape:label="yellow_ligands" transform="matrix(2.3321915,0,0,2.3321915,93.753362,419.95305)">
      <ellipse style="opacity:1;fill:#ffad00;fill-opacity:1;stroke:none;stroke-width:5.03739;stroke-linecap:square;stroke-linejoin:round;stroke-dasharray:none;stroke-opacity:1" id="SvgjsEllipse1313" cx="35.705048" cy="88.88485" rx="1.6372311" ry="1.9973559"></ellipse>
      <ellipse style="fill:#ffad00;fill-opacity:1;stroke:none;stroke-width:5.03739;stroke-linecap:square;stroke-linejoin:round;stroke-dasharray:none;stroke-opacity:1" id="SvgjsEllipse1312" cx="55.274681" cy="88.873672" rx="1.6372311" ry="1.9973559"></ellipse>
      <ellipse style="fill:#ffad00;fill-opacity:1;stroke:none;stroke-width:5.03739;stroke-linecap:square;stroke-linejoin:round;stroke-dasharray:none;stroke-opacity:1" id="SvgjsEllipse1311" cx="61.884907" cy="83.410049" rx="1.6372311" ry="1.9973559"></ellipse>
      <ellipse style="fill:#ffad00;fill-opacity:1;stroke:none;stroke-width:5.03739;stroke-linecap:square;stroke-linejoin:round;stroke-dasharray:none;stroke-opacity:1" id="SvgjsEllipse1310" cx="60.4617" cy="95.949516" rx="1.6372311" ry="1.9973559"></ellipse>
      <ellipse style="fill:#ffad00;fill-opacity:1;stroke:none;stroke-width:5.03739;stroke-linecap:square;stroke-linejoin:round;stroke-dasharray:none;stroke-opacity:1" id="SvgjsEllipse1309" cx="62.775421" cy="104.93667" rx="1.6372311" ry="1.9973559"></ellipse>
      <ellipse style="fill:#ffad00;fill-opacity:1;stroke:none;stroke-width:5.03739;stroke-linecap:square;stroke-linejoin:round;stroke-dasharray:none;stroke-opacity:1" id="SvgjsEllipse1308" cx="53.91169" cy="102.56142" rx="1.6372311" ry="1.9973559"></ellipse>
      <ellipse style="fill:#ffad00;fill-opacity:1;stroke:none;stroke-width:5.03739;stroke-linecap:square;stroke-linejoin:round;stroke-dasharray:none;stroke-opacity:1" id="SvgjsEllipse1307" cx="45.235893" cy="109.55941" rx="1.6372311" ry="1.9973559"></ellipse>
      <ellipse style="fill:#ffad00;fill-opacity:1;stroke:none;stroke-width:5.03739;stroke-linecap:square;stroke-linejoin:round;stroke-dasharray:none;stroke-opacity:1" id="SvgjsEllipse1306" cx="42.456165" cy="118.50124" rx="1.6372311" ry="1.9973559"></ellipse>
      <ellipse style="fill:#ffad00;fill-opacity:1;stroke:none;stroke-width:5.03739;stroke-linecap:square;stroke-linejoin:round;stroke-dasharray:none;stroke-opacity:1" id="SvgjsEllipse1305" cx="50.368587" cy="118.61177" rx="1.6372311" ry="1.9973559"></ellipse>
      <ellipse style="fill:#ffad00;fill-opacity:1;stroke:none;stroke-width:5.03739;stroke-linecap:square;stroke-linejoin:round;stroke-dasharray:none;stroke-opacity:1" id="SvgjsEllipse1304" cx="59.106598" cy="114.04986" rx="1.6372311" ry="1.9973559"></ellipse>
    </g>
    <g id="SvgjsG1303" inkscape:label="R1" transform="matrix(2.3321915,0,0,2.3321915,93.753362,419.95305)">
      <path style="opacity:1;fill:none;fill-opacity:1;stroke:#ffad00;stroke-width:1.472;stroke-linecap:square;stroke-linejoin:round;stroke-dasharray:none;stroke-opacity:1" d="m 30.769401,91.744932 c -0.538053,0.919158 -0.794418,2.248907 -0.557308,3.22235 0.240514,0.987415 0.809433,1.643047 1.674924,1.907705 0.99866,0.30538 2.07988,0.120037 2.705826,-0.697812 0.449803,-0.587705 0.700247,-1.49973 0.745694,-1.859423" id="SvgjsPath1302" sodipodi:nodetypes="csssc"></path>
      <path style="opacity:1;fill:none;fill-opacity:1;stroke:#ffad00;stroke-width:1.472;stroke-linecap:square;stroke-linejoin:round;stroke-dasharray:none;stroke-opacity:1" d="m 30.756675,100.0267 0.988061,-2.971038" id="SvgjsPath1301" sodipodi:nodetypes="cc"></path>
    </g>
    <g id="SvgjsG1300" inkscape:label="R2" transform="matrix(2.3321915,0,0,2.3321915,93.753362,419.95305)">
      <path style="fill:none;fill-opacity:1;stroke:#ffad00;stroke-width:1.472;stroke-linecap:square;stroke-linejoin:round;stroke-dasharray:none;stroke-opacity:1" d="m 75.425233,108.0956 c 1.159002,0.0701 1.522654,-0.21822 2.050639,-0.71317 0.627119,-0.58788 0.999836,-1.51636 1.002442,-2.37594 0.0031,-1.03124 -0.395896,-2.19413 -1.185324,-2.85766 -0.490568,-0.41233 -1.515253,-0.45582 -1.876044,-0.42015" id="SvgjsPath1299" sodipodi:nodetypes="caaac"></path>
      <path style="fill:none;fill-opacity:1;stroke:#ffad00;stroke-width:1.67223;stroke-linecap:square;stroke-linejoin:round;stroke-dasharray:none;stroke-opacity:1" d="m 79.2773,104.9295 3.459332,0.005" id="SvgjsPath1298" sodipodi:nodetypes="cc"></path>
    </g>
    <g id="SvgjsG1297" inkscape:label="R6" transform="matrix(2.3321915,0,0,2.3321915,95.370382,231.48489)">
      <path style="fill:none;fill-opacity:1;stroke:#ffad00;stroke-width:1.472;stroke-linecap:square;stroke-linejoin:round;stroke-dasharray:none;stroke-opacity:1" d="m 75.425233,108.0956 c 1.159002,0.0701 1.522654,-0.21822 2.050639,-0.71317 0.627119,-0.58788 0.999836,-1.51636 1.002442,-2.37594 0.0031,-1.03124 -0.395896,-2.19413 -1.185324,-2.85766 -0.490568,-0.41233 -1.515253,-0.45582 -1.876044,-0.42015" id="SvgjsPath1296" sodipodi:nodetypes="caaac"></path>
      <path style="fill:none;fill-opacity:1;stroke:#ffad00;stroke-width:1.67223;stroke-linecap:square;stroke-linejoin:round;stroke-dasharray:none;stroke-opacity:1" d="m 79.2773,104.9295 3.459332,0.005" id="SvgjsPath1295" sodipodi:nodetypes="cc"></path>
    </g>
    <g id="SvgjsG1294" inkscape:label="R3" transform="matrix(2.3321915,0,0,2.3321915,93.753362,419.95305)">
      <path style="opacity:1;fill:none;fill-opacity:1;stroke:#0074ba;stroke-width:1.672;stroke-linecap:square;stroke-linejoin:round;stroke-dasharray:none;stroke-opacity:1" d="m 87.85157,42.467503 3.645985,3.045479" id="SvgjsPath1293"></path>
      <path style="opacity:1;fill:none;fill-opacity:1;stroke:#0074ba;stroke-width:1.672;stroke-linecap:square;stroke-linejoin:round;stroke-dasharray:none;stroke-opacity:1" d="m 91.683111,49.055707 0.190751,-2.775769" id="SvgjsPath1292" sodipodi:nodetypes="cc"></path>
      <path style="opacity:1;fill:none;fill-opacity:1;stroke:#0074ba;stroke-width:1.672;stroke-linecap:square;stroke-linejoin:round;stroke-dasharray:none;stroke-opacity:1" d="m 94.194616,44.094354 -1.764641,1.570914" id="SvgjsPath1291" sodipodi:nodetypes="cc"></path>
    </g>
    <g id="SvgjsG1290" inkscape:label="R5" transform="matrix(-0.92903931,2.1391594,-2.1391594,-0.92903931,604.78367,497.12548)">
      <path style="opacity:1;fill:none;fill-opacity:1;stroke:#0074ba;stroke-width:1.672;stroke-linecap:square;stroke-linejoin:round;stroke-dasharray:none;stroke-opacity:1" d="m 88.721397,42.858356 2.790311,2.402929" id="SvgjsPath1289" sodipodi:nodetypes="cc"></path>
      <path style="opacity:1;fill:none;fill-opacity:1;stroke:#0074ba;stroke-width:1.672;stroke-linecap:square;stroke-linejoin:round;stroke-dasharray:none;stroke-opacity:1" d="m 90.286237,48.685731 1.587625,-2.405793" id="SvgjsPath1288" sodipodi:nodetypes="cc"></path>
      <path style="opacity:1;fill:none;fill-opacity:1;stroke:#0074ba;stroke-width:1.672;stroke-linecap:square;stroke-linejoin:round;stroke-dasharray:none;stroke-opacity:1" d="m 95.327775,44.594211 -2.8978,1.071057" id="SvgjsPath1287" sodipodi:nodetypes="cc"></path>
    </g>
    <g id="SvgjsG1286" inkscape:label="geen_cell" transform="matrix(2.3409731,0,0,2.3374191,93.393662,419.81578)">
      <path style="fill:#89c4a0;fill-opacity:1;stroke:#000000;stroke-width:0.3765;stroke-dasharray:none;stroke-opacity:1" d="m 61.834055,129.09885 c 1.707876,1.703 5.640935,-5.91126 6.031937,-6.81757 0.104844,-0.30573 1.008346,-1.21347 1.314535,-1.92872 0.32822,-0.7667 0.529863,-1.61269 0.523351,-2.44667 -0.0203,-2.59977 -2.317174,-3.6624 -3.607899,-4.9482 -1.100414,-1.07439 -2.874651,-9.48392 -4.917006,-8.74464 -1.970121,0.71313 2.704526,9.40008 2.824926,14.11762 0.1204,4.71754 -3.129616,9.81114 -2.169841,10.76818 z" id="SvgjsPath1285" sodipodi:nodetypes="scascszss" transform="matrix(1.3333333,0,0,-1.3333333,0,192)"></path>
      <path id="SvgjsPath1284" style="fill:#000000;fill-opacity:1;stroke:#000000;stroke-width:0.202" transform="rotate(4.440023)" d="m 92.251016,27.573216 c 0,2.278198 -0.728654,4.015964 -1.522928,4.015965 -0.794273,-1e-6 -1.186202,-1.878458 -1.186202,-4.156655 0,-2.278198 0.750713,-4.166378 1.544986,-4.166379 0.794274,1e-6 1.164144,2.028871 1.164144,4.307069 z" sodipodi:nodetypes="sssss"></path>
    </g>
    <g id="SvgjsG1283" inkscape:label="pink_cell" transform="matrix(2.3321915,0,0,2.3321915,93.212822,419.67308)">
      <path style="opacity:1;fill:#c84397;fill-opacity:1;stroke:#000000;stroke-width:0.502;stroke-dasharray:none;stroke-opacity:1" d="m 19.232695,131.42094 c 0.01212,-0.56031 0.177393,-1.11143 0.436454,-1.6084 0.287244,-0.55103 0.690238,-1.04471 0.89642,-1.63091 0.190644,-0.54203 0.200593,-1.13487 0.11155,-1.70251 -0.111476,-0.71065 -0.371779,-1.38772 -0.599461,-2.07007 -0.192285,-0.57627 -0.362935,-1.1633 -0.435272,-1.76648 -0.05253,-0.43806 -0.05272,-0.88088 -0.03449,-1.3217 0.02987,-0.7222 0.109533,-1.445 0.290629,-2.14477 0.160137,-0.61878 0.398093,-1.21432 0.591229,-1.82361 0.128127,-0.40421 0.236653,-0.81505 0.311727,-1.23238 0.107597,-0.59812 0.146045,-1.20784 0.129779,-1.81534 -0.02126,-0.79409 -0.135679,-1.58396 -0.307569,-2.35952 -0.14219,-0.64155 -0.324679,-1.28131 -0.338351,-1.93829 -0.01417,-0.68107 0.159687,-1.3677 0.513134,-1.95005 0.293033,-0.48281 0.699945,-0.88494 1.11302,-1.27009 0.505837,-0.47164 1.02759,-0.92611 1.561632,-1.36556 0.96835,-0.79683 2.00165,-1.57169 2.638194,-2.65217 0.254134,-0.43137 0.437673,-0.90071 0.594372,-1.37622 0.111175,-0.33737 0.209993,-0.68049 0.363663,-1.00074 0.15367,-0.32026 0.367922,-0.620828 0.664497,-0.816325 0.281642,-0.185654 0.622257,-0.266152 0.959198,-0.282299 0.424229,-0.02033 0.854765,0.05806 1.237957,0.241217 0.360335,0.172234 0.672439,0.432489 0.949264,0.720367 0.480706,0.4999 0.865244,1.08988 1.144439,1.72472 0.209444,0.47624 0.359905,0.97649 0.484728,1.48156 0.117512,0.47549 0.213041,0.95877 0.234032,1.44811 0.01871,0.43626 -0.02207,0.87358 -0.09525,1.30406 -0.11115,0.65381 -0.296468,1.29233 -0.476377,1.93065 -0.101917,0.3616 -0.202748,0.72665 -0.229103,1.10142 -0.02635,0.37476 0.02652,0.76435 0.214973,1.08936 0.126656,0.21844 0.310194,0.40032 0.515772,0.54693 0.205577,0.14661 0.433318,0.25942 0.665336,0.35904 0.464037,0.19923 0.955396,0.35143 1.368356,0.6421 0.58636,0.41272 0.961608,1.07376 1.158267,1.76331 0.19666,0.68955 0.231228,1.41365 0.254396,2.13032 0.03676,1.13722 0.04783,2.2766 -0.02738,3.41192 -0.0765,1.15479 -0.242821,2.30598 -0.544812,3.4232 -0.240829,0.89095 -0.568371,1.76025 -1.003773,2.57402 -0.202754,0.37895 -0.43032,0.74773 -0.717669,1.06733 -0.287348,0.31959 -0.637829,0.58963 -1.040124,0.74086 -0.453285,0.17039 -0.947635,0.18336 -1.430708,0.21714 -0.483074,0.0338 -0.982183,0.0961 -1.395572,0.34831 -0.264145,0.16116 -0.47984,0.393 -0.654593,0.64836 -0.174753,0.25535 -0.310811,0.53487 -0.440673,0.81573 -0.515566,1.11503 -0.949203,2.27883 -1.640774,3.29412 -0.517219,0.75933 -1.166729,1.41741 -1.757157,2.12132 -0.533892,0.63651 -1.04324,1.33161 -1.773921,1.72694 -0.32719,0.17703 -0.692347,0.28738 -1.06398,0.30413 -0.371633,0.0167 -0.74934,-0.0618 -1.075685,-0.24043 -0.276616,-0.15137 -0.511796,-0.37081 -0.709294,-0.61662 -0.197498,-0.24582 -0.35908,-0.51831 -0.510967,-0.79464 -0.327901,-0.59656 -0.614507,-1.21731 -0.827562,-1.86384 -0.163296,-0.49554 -0.28378,-1.01195 -0.272501,-1.53358 z" id="SvgjsPath1282" inkscape:path-effect="#path-effect4833-9" inkscape:original-d="m 19.232695,131.42094 c 0.02475,-0.55497 0.228454,-1.09329 0.436454,-1.6084 0.232271,-0.57522 0.722602,-1.03542 0.89642,-1.63091 0.159353,-0.54594 0.172979,-1.13712 0.11155,-1.70251 -0.07759,-0.71417 -0.413578,-1.37616 -0.599461,-2.07007 -0.15692,-0.58579 -0.354347,-1.16546 -0.435272,-1.76648 -0.05881,-0.43678 -0.05841,-0.88163 -0.03449,-1.3217 0.03916,-0.72039 0.1303,-1.44135 0.290629,-2.14477 0.142009,-0.62304 0.414244,-1.20959 0.591229,-1.82361 0.117358,-0.40716 0.244403,-0.81403 0.311727,-1.23238 0.09639,-0.59895 0.147446,-1.20894 0.129779,-1.81534 -0.0231,-0.79282 -0.188083,-1.57541 -0.307569,-2.35952 -0.0988,-0.64838 -0.366048,-1.28301 -0.338351,-1.93829 0.02839,-0.67154 0.197728,-1.3565 0.513134,-1.95005 0.264153,-0.4971 0.714761,-0.87226 1.11302,-1.27009 0.48922,-0.4887 1.057223,-0.89256 1.561632,-1.36556 0.909592,-0.85296 1.939034,-1.61966 2.638194,-2.65217 0.280176,-0.41376 0.371949,-0.92876 0.594372,-1.37622 0.309769,-0.62318 0.483131,-1.38433 1.02816,-1.817065 0.261024,-0.207244 0.626272,-0.266676 0.959198,-0.282299 0.419951,-0.01971 0.854219,0.06948 1.237957,0.241217 0.362565,0.162258 0.67742,0.430743 0.949264,0.720367 0.472189,0.50307 0.843697,1.10375 1.144439,1.72472 0.226491,0.46765 0.362117,0.97662 0.484728,1.48156 0.115379,0.47516 0.212692,0.95961 0.234032,1.44811 0.01902,0.43543 -0.02693,0.8736 -0.09525,1.30406 -0.10391,0.65466 -0.394275,1.2729 -0.476377,1.93065 -0.09045,0.72465 -0.3702,1.55319 -0.01413,2.19078 0.484766,0.86803 1.919241,0.77911 2.549464,1.54807 0.87518,1.06784 1.179067,2.53288 1.412663,3.89363 0.19243,1.12095 0.06683,2.27849 -0.02738,3.41192 -0.09571,1.15146 -0.242388,2.30805 -0.544812,3.4232 -0.241048,0.88883 -0.505607,1.79945 -1.003773,2.57402 -0.454705,0.707 -1.019497,1.4063 -1.757793,1.80819 -0.843841,0.45935 -2.013798,0.0527 -2.82628,0.56545 -0.515412,0.32529 -0.775559,0.94519 -1.095266,1.46409 -0.643484,1.04439 -0.97164,2.26598 -1.640774,3.29412 -0.500842,0.76956 -1.134451,1.44656 -1.757157,2.12132 -0.559667,0.60645 -1.014109,1.40492 -1.773921,1.72694 -0.65697,0.27844 -1.486421,0.35077 -2.139665,0.0637 -0.569338,-0.2502 -0.887082,-0.88616 -1.220261,-1.41126 -0.364189,-0.57398 -0.628719,-1.2138 -0.827562,-1.86384 -0.151875,-0.49649 -0.29563,-1.01489 -0.272501,-1.53358 z" sodipodi:nodetypes="aaaaaaaaaaaaaaaaaaaaaaaaaaaaaaaaaaaaaaaaaaa"></path>
      <g id="SvgjsG1281" inkscape:label="inside">
        <ellipse style="fill:#590d0f;fill-opacity:1;stroke:#000000;stroke-width:0.094038;stroke-dasharray:none;stroke-opacity:1" id="SvgjsEllipse1280" cx="86.022919" cy="78.171074" rx="1.7262304" ry="3.061466" transform="matrix(0.8056708,0.59236354,-0.55951194,0.82882229,0,0)"></ellipse>
        <ellipse style="fill:#590d0f;fill-opacity:1;stroke:#000000;stroke-width:0.0941834;stroke-dasharray:none;stroke-opacity:1" id="SvgjsEllipse1279" cx="74.85437" cy="91.343094" rx="1.7103198" ry="3.3079255" transform="matrix(0.88292469,0.46951463,-0.38988392,0.92086401,0,0)"></ellipse>
        <ellipse style="fill:#590d0f;fill-opacity:1;stroke:#000000;stroke-width:0.0942119;stroke-dasharray:none;stroke-opacity:1" id="SvgjsEllipse1278" cx="15.754027" cy="121.76852" rx="1.4971389" ry="2.7073996" transform="matrix(0.99999526,-0.00307737,0.09775508,0.9952105,0,0)"></ellipse>
        <ellipse style="fill:#590d0f;fill-opacity:1;stroke:#000000;stroke-width:0.0942119;stroke-dasharray:none;stroke-opacity:1" id="SvgjsEllipse1277" cx="13.870918" cy="120.49802" rx="1.4971389" ry="2.7073996" transform="matrix(0.99999526,-0.00307737,0.09775508,0.9952105,0,0)"></ellipse>
        <ellipse style="opacity:1;fill:#590d0f;fill-opacity:1;stroke:#000000;stroke-width:0.094;stroke-dasharray:none;stroke-opacity:1" id="SvgjsEllipse1276" cx="28.015251" cy="113.79927" rx="2.415704" ry="4.1961932"></ellipse>
        <ellipse style="opacity:1;fill:#000000;fill-opacity:1;stroke:#000000;stroke-width:0.251161;stroke-dasharray:none;stroke-opacity:1" id="SvgjsEllipse1275" cx="24.440689" cy="115.57337" rx="0.55045807" ry="0.52623951"></ellipse>
        <ellipse style="fill:#000000;fill-opacity:1;stroke:#000000;stroke-width:0.301118;stroke-dasharray:none;stroke-opacity:1" id="SvgjsEllipse1274" cx="29.718069" cy="119.20162" rx="0.70792097" ry="0.58815384"></ellipse>
        <ellipse style="fill:#000000;fill-opacity:1;stroke:#000000;stroke-width:0.270074;stroke-dasharray:none;stroke-opacity:1" id="SvgjsEllipse1273" cx="25.60915" cy="119.93661" rx="0.56622231" ry="0.5915361"></ellipse>
        <ellipse style="display:inline;fill:none;fill-opacity:1;stroke:#000000;stroke-width:0.069;stroke-dasharray:none;stroke-opacity:1" id="SvgjsEllipse1272" cx="23.350111" cy="-54.395897" rx="0.45725748" ry="0.40896329" transform="matrix(1.3333333,0,0,1.3333333,0,192)"></ellipse>
        <ellipse style="fill:#000000;fill-opacity:1;stroke:#000000;stroke-width:0.251161;stroke-dasharray:none;stroke-opacity:1" id="SvgjsEllipse1271" cx="27.988522" cy="114.68315" rx="0.55045807" ry="0.52623951"></ellipse>
        <ellipse style="display:inline;fill:none;fill-opacity:1;stroke:#000000;stroke-width:0.069;stroke-dasharray:none;stroke-opacity:1" id="SvgjsEllipse1270" cx="21.922024" cy="-58.483498" rx="0.5153141" ry="0.48207825" transform="matrix(1.3333333,0,0,1.3333333,0,192)"></ellipse>
        <ellipse style="display:inline;fill:none;fill-opacity:1;stroke:#000000;stroke-width:0.069;stroke-dasharray:none;stroke-opacity:1" id="SvgjsEllipse1269" cx="20.423452" cy="-58.513241" rx="0.43121567" ry="0.45521489" transform="matrix(1.3333333,0,0,1.3333333,0,192)"></ellipse>
      </g>
    </g>
    <g id="SvgjsG1268" inkscape:label="red_cell" transform="matrix(2.3321915,0,0,2.3321915,93.581542,420.43297)">
      <path style="opacity:1;fill:#ed1c24;fill-opacity:1;stroke:#000000;stroke-width:0.502;stroke-dasharray:none;stroke-opacity:1" d="m 81.873769,96.671737 c 0.526468,-0.404693 1.406473,0.203364 1.890966,0.657469 2.545746,2.386073 3.340612,6.390954 5.005391,9.715024 0.81871,1.63472 2.144841,2.99729 2.990894,4.57907 0.486353,0.90929 0.775015,1.95886 0.794204,2.98986 0.01944,1.04462 -0.140571,2.26334 -0.691414,3.0572 -0.718419,1.03536 -2.444714,1.19087 -3.281631,2.44995 -1.547989,2.32883 -2.167961,6.41314 -4.783066,8.75443 -0.413382,0.3701 -1.090722,0.66645 -1.602185,0.45136 -0.724775,-0.3048 -1.22779,-1.28972 -1.130905,-2.06999 0.469318,-3.77969 3.274627,-7.33403 3.509617,-11.28792 0.119574,-2.01191 0.124786,-4.03958 -0.06547,-6.04604 -0.363859,-3.83729 -1.788834,-7.52412 -2.703774,-10.906055 -0.207316,-0.76631 -0.404314,-1.981774 0.06737,-2.344358 z" id="SvgjsPath1267" sodipodi:nodetypes="ssssasssasssss"></path>
      <ellipse style="opacity:1;fill:#000000;fill-opacity:1;stroke:#000000;stroke-width:0.563555;stroke-dasharray:none;stroke-opacity:1" id="SvgjsEllipse1266" cx="76.97393" cy="120.11027" rx="1.4051652" ry="4.3268485" transform="matrix(0.9956348,-0.09333461,0.09244311,0.99571797,0,0)"></ellipse>
    </g>
    <g id="SvgjsG1265" inkscape:label="lilac_cell" transform="matrix(2.3321915,0,0,2.3321915,93.828272,420.32483)">
      <path style="opacity:1;fill:#674c60;fill-opacity:1;stroke:#000000;stroke-width:0.502;stroke-linecap:round;stroke-linejoin:round;stroke-dasharray:none;stroke-opacity:1" d="m 317.51317,94.55647 c 0.55692,-0.341903 0.67011,-1.13186 0.88719,-1.748245 0.10346,-0.293775 0.2102,-0.603353 0.1926,-0.914316 -0.0292,-0.516644 -0.3921,-0.965015 -0.48937,-1.473263 -0.10437,-0.545351 -0.10274,-1.10779 -0.0957,-1.662994 0.0117,-0.921124 0.20444,-1.833239 0.22865,-2.754119 0.0131,-0.499865 0.0329,-1.005559 -0.0454,-1.499427 -0.0181,-0.113873 -0.0421,-0.230644 -0.097,-0.332008 -0.0543,-0.100193 -0.12719,-0.19719 -0.22263,-0.259473 -0.0691,-0.04507 -0.1547,-0.06355 -0.23675,-0.07187 -0.0825,-0.0084 -0.16686,0.0042 -0.24759,0.02298 -0.16189,0.0377 -0.30775,0.126595 -0.46582,0.178007 -0.4643,0.151008 -0.94058,0.262698 -1.41401,0.382043 -0.81269,0.20487 -1.62071,0.439816 -2.44814,0.573221 -0.53767,0.08669 -1.08329,0.120115 -1.62727,0.146363 -0.63774,0.03077 -1.2815,0.08928 -1.91539,0.01288 -0.24441,-0.02946 -0.48428,-0.09771 -0.71619,-0.180304 -0.20737,-0.07385 -0.4344,-0.132737 -0.59814,-0.279859 -0.16163,-0.145228 -0.28566,-0.346641 -0.33762,-0.557628 -0.0263,-0.10687 -0.013,-0.224653 0.0203,-0.329565 0.0332,-0.104629 0.0923,-0.205704 0.17291,-0.280252 0.0885,-0.08187 0.20511,-0.134316 0.32156,-0.165454 0.11722,-0.03134 0.24276,-0.02813 0.36361,-0.01723 0.24261,0.02187 0.46966,0.139882 0.71199,0.164595 0.74066,0.07553 1.49086,0.0075 2.23286,-0.05343 0.42122,-0.03457 0.8399,-0.1001 1.25553,-0.176762 0.16576,-0.03057 0.33834,-0.04558 0.49292,-0.112781 0.0771,-0.03353 0.15151,-0.08001 0.20891,-0.141485 0.0571,-0.06113 0.10659,-0.135567 0.12612,-0.216883 0.0216,-0.0899 0.0129,-0.1889 -0.0153,-0.276942 -0.0284,-0.08863 -0.0833,-0.170426 -0.14955,-0.235787 -0.13264,-0.130845 -0.31069,-0.207086 -0.47606,-0.292911 -0.30226,-0.156867 -0.6612,-0.205863 -0.93865,-0.403334 -0.46385,-0.330143 -0.94339,-0.731786 -1.15108,-1.261894 -0.14956,-0.381725 -0.105,-0.831319 -0.009,-1.229898 0.0503,-0.208976 0.15881,-0.408008 0.2978,-0.571976 0.0697,-0.08224 0.16059,-0.149311 0.25855,-0.194327 0.0976,-0.04486 0.20742,-0.074 0.31476,-0.06938 0.12358,0.0053 0.24671,0.04949 0.35416,0.110749 0.10814,0.06165 0.19819,0.153957 0.27746,0.249927 0.1591,0.192617 0.22652,0.450476 0.38742,0.641592 0.76249,0.905672 1.70532,1.659651 2.68309,2.32718 0.30575,0.208734 0.64401,0.368199 0.98327,0.516364 0.25758,0.112493 0.51691,0.24005 0.79496,0.281172 0.13886,0.02054 0.28534,0.01783 0.42065,-0.01949 0.1346,-0.03713 0.27113,-0.09849 0.36922,-0.197857 0.12327,-0.124868 0.20244,-0.296337 0.24262,-0.467136 0.0406,-0.172543 0.0166,-0.356283 -0.009,-0.531684 -0.0514,-0.352634 -0.25053,-0.675216 -0.28774,-1.029628 -0.0768,-0.732073 0.14642,-1.467797 0.13973,-2.203863 -0.007,-0.768167 -0.0237,-1.546436 -0.18759,-2.296948 -0.22108,-1.012379 -0.65685,-1.967913 -1.06163,-2.92182 -0.21806,-0.513873 -0.55338,-0.976963 -0.73462,-1.504948 -0.15845,-0.461609 -0.24536,-0.947983 -0.30122,-1.432824 -0.0791,-0.686264 -0.0174,-1.38169 -0.046,-2.071901 -0.0113,-0.2737 -0.0886,-0.549115 -0.0498,-0.820293 0.0193,-0.134864 0.0584,-0.274131 0.13806,-0.38468 0.0788,-0.109432 0.19185,-0.202226 0.31785,-0.250303 0.0857,-0.03269 0.18427,-0.03291 0.27459,-0.01704 0.0905,0.0159 0.18244,0.05079 0.25286,0.109836 0.13005,0.109049 0.23128,0.262265 0.28117,0.424489 0.0504,0.163877 -0.004,0.343145 0.006,0.514317 0.0465,0.81534 -0.5265,2.185125 0.2503,2.43718 0.23168,0.07518 0.33923,-0.351114 0.48722,-0.544577 0.24977,-0.326528 0.46554,-0.678657 0.67186,-1.03424 0.33785,-0.582276 0.64109,-1.184927 0.92433,-1.795632 0.0539,-0.116207 0.0749,-0.249216 0.14722,-0.354972 0.036,-0.05268 0.0821,-0.101947 0.1381,-0.132543 0.0555,-0.03034 0.12176,-0.0519 0.18456,-0.04426 0.0727,0.0088 0.14369,0.04895 0.19526,0.101017 0.0521,0.05265 0.0846,0.125996 0.10025,0.198439 0.0314,0.1455 0.002,0.298751 -0.0192,0.44612 -0.0685,0.483093 -0.153,0.974222 -0.34627,1.422242 -0.17195,0.398593 -0.49144,0.716738 -0.70901,1.092376 -0.19278,0.332832 -0.39379,0.665696 -0.52698,1.026532 -0.11374,0.30815 -0.22391,0.630353 -0.22745,0.958805 -0.006,0.532329 0.13863,1.066741 0.33506,1.561536 0.21764,0.548232 0.62975,0.99826 0.91654,1.513702 0.0916,0.164612 0.14469,0.351945 0.25645,0.503588 0.0557,0.07552 0.12118,0.148165 0.20174,0.196246 0.08,0.04773 0.1735,0.08807 0.26654,0.0838 0.13723,-0.0063 0.26988,-0.07723 0.38018,-0.159119 0.11251,-0.08353 0.18402,-0.211739 0.26757,-0.324229 0.40645,-0.547216 0.78005,-1.11918 1.13393,-1.701779 0.27017,-0.44479 0.50181,-0.91187 0.75389,-1.367159 0.2977,-0.537695 0.59734,-1.07432 0.89587,-1.611554 0.27245,-0.490286 0.50758,-1.003223 0.81709,-1.470994 0.19525,-0.29508 0.41987,-0.570648 0.65252,-0.837231 0.12836,-0.147081 0.24869,-0.307743 0.40896,-0.419204 0.0799,-0.0556 0.17129,-0.100657 0.26702,-0.118473 0.0951,-0.01771 0.19878,-0.01806 0.28994,0.01439 0.0914,0.03254 0.17392,0.09669 0.23445,0.172525 0.0608,0.07618 0.105,0.171333 0.11678,0.268093 0.0234,0.192076 -0.0253,0.392678 -0.0974,0.572251 -0.14629,0.364541 -0.51128,0.612623 -0.66019,0.976103 -0.11214,0.273721 -0.16786,0.576858 -0.16146,0.872589 0.006,0.29795 0.0814,0.598108 0.20056,0.871275 0.14575,0.33416 0.33667,0.66856 0.61423,0.904919 0.21784,0.185499 0.52983,0.220237 0.77793,0.362749 0.24474,0.140583 0.48629,0.293406 0.69573,0.482607 0.15506,0.140074 0.31412,0.28938 0.40762,0.476249 0.0467,0.0933 0.0743,0.201287 0.0683,0.305445 -0.006,0.103326 -0.0405,0.210017 -0.10198,0.293264 -0.0498,0.06746 -0.12604,0.115169 -0.20285,0.148836 -0.0772,0.03385 -0.16392,0.04784 -0.24823,0.04856 -0.16891,0.0014 -0.33308,-0.0566 -0.4989,-0.0888 -0.62331,-0.121043 -1.22907,-0.392552 -1.86403,-0.392362 -0.7273,2.18e-4 -1.47347,0.148135 -2.13485,0.450705 -0.38121,0.1744 -0.73803,0.434804 -1.00114,0.761165 -0.25716,0.318983 -0.38733,0.72621 -0.51943,1.114066 -0.0929,0.272689 -0.1856,0.555282 -0.18882,0.843336 -0.003,0.284371 0.0267,0.589525 0.16772,0.836518 0.22582,0.395667 0.74102,0.550521 1.01713,0.912886 0.75424,0.989851 1.28344,2.156657 1.66704,3.340518 0.45509,1.404494 0.56478,2.901901 0.72236,4.369852 0.091,0.847925 0.16521,1.703202 0.12799,2.555185 -0.0292,0.669054 -0.18355,1.326748 -0.27512,1.990151 -0.0624,0.452451 -0.52307,1.048016 -0.18707,1.357391 0.44769,0.412205 1.22024,-0.163104 1.78188,-0.397396 0.95698,-0.399207 1.75739,-1.101743 2.61726,-1.681213 1.09168,-0.735685 2.16767,-1.49526 3.22567,-2.278603 0.17193,-0.127294 0.31583,-0.297552 0.50713,-0.3933 0.0954,-0.04774 0.2019,-0.08217 0.30853,-0.08488 0.1059,-0.0027 0.21988,0.01346 0.3103,0.06865 0.10659,0.06507 0.192,0.172745 0.23918,0.288375 0.0476,0.116628 0.0571,0.253355 0.0311,0.376605 -0.0519,0.246161 -0.20088,0.468653 -0.36064,0.662996 -0.3054,0.371518 -0.73498,0.620631 -1.11007,0.921635 -0.52054,0.417728 -1.03479,0.845272 -1.58229,1.226991 -0.50997,0.355557 -1.03911,0.684859 -1.58205,0.987701 -0.6299,0.351346 -1.25776,0.723693 -1.93934,0.959619 -0.4545,0.157325 -0.94496,0.182014 -1.41209,0.296523 -0.34245,0.08395 -0.91334,-0.05057 -1.01837,0.286016 -0.18334,0.587531 0.71582,1.015439 1.1782,1.421658 0.89131,0.783051 1.96973,1.329105 3.01012,1.899358 1.11757,0.612556 2.39284,0.930407 3.45931,1.628132 0.17559,0.11488 0.35459,0.241804 0.47376,0.414516 0.0596,0.08631 0.101,0.190358 0.10962,0.294864 0.009,0.103727 -0.007,0.216854 -0.0594,0.306536 -0.0574,0.09752 -0.15644,0.172888 -0.26018,0.218122 -0.10475,0.04567 -0.2265,0.05452 -0.34015,0.04263 -0.22821,-0.02388 -0.43566,-0.144583 -0.65051,-0.225146 -1.11773,-0.419122 -2.25504,-0.803259 -3.31997,-1.342613 -1.06669,-0.540246 -2.11073,-1.147514 -3.05185,-1.885074 -0.55666,-0.436256 -1.01625,-0.984008 -1.51412,-1.486315 -0.0893,-0.09014 -0.14953,-0.219898 -0.2643,-0.274066 -0.0656,-0.03094 -0.14609,-0.03287 -0.21684,-0.01703 -0.0648,0.0145 -0.14095,0.04055 -0.17291,0.09872 -0.0651,0.118512 -0.0103,0.273227 0.0192,0.405196 0.0656,0.293991 0.23717,0.553963 0.34516,0.835168 0.0895,0.232982 0.16938,0.46954 0.25068,0.705498 0.1859,0.539561 0.42532,1.065361 0.54213,1.623966 0.13349,0.638348 0.18409,1.296427 0.17603,1.948533 -0.0119,0.961882 -0.14719,1.922562 -0.3306,2.866872 -0.14524,0.74777 -0.24964,1.53044 -0.60705,2.20313 -0.15128,0.28472 -0.30981,0.78079 -0.62894,0.73485 -0.27497,-0.0396 -0.29568,-0.48629 -0.34129,-0.76032 -0.0901,-0.54109 0.0873,-1.09383 0.15129,-1.63862 0.082,-0.69821 0.20976,-1.39043 0.2979,-2.08789 0.0696,-0.55112 0.1775,-1.101021 0.18242,-1.656505 0.008,-0.898484 -0.003,-1.819502 -0.24753,-2.68417 -0.22908,-0.810757 -0.66829,-1.554527 -1.11931,-2.266136 -0.0699,-0.110294 -0.14092,-0.226107 -0.24358,-0.306808 -0.1009,-0.07932 -0.2213,-0.156511 -0.34955,-0.161432 -0.13509,-0.0052 -0.26976,0.0633 -0.38016,0.141332 -0.11255,0.07955 -0.18973,0.201891 -0.26516,0.317238 -0.47611,0.728085 -0.78228,1.554143 -1.16338,2.33616 -0.15602,0.320162 -0.30599,0.643244 -0.45982,0.964466 -0.10368,0.216491 -0.15645,0.466253 -0.31216,0.64893 -0.0772,0.09063 -0.1783,0.17321 -0.29337,0.20391 -0.11332,0.03023 -0.24564,0.02225 -0.35054,-0.0302 -0.0765,-0.03824 -0.13335,-0.114433 -0.17091,-0.191233 -0.0378,-0.07729 -0.0503,-0.167981 -0.0463,-0.253928 0.0116,-0.252769 0.12427,-0.491046 0.20416,-0.731141 0.20083,-0.603579 0.49851,-1.172606 0.69032,-1.779112 0.0504,-0.159523 0.26215,-0.398177 0.12052,-0.487247 -0.17408,-0.109475 -0.33122,0.24649 -0.4756,0.392923 -0.4055,0.411282 -0.71623,0.906416 -1.08458,1.35128 -0.35264,0.42589 -0.70421,0.853278 -1.07727,1.261395 -0.135,0.147681 -0.26364,0.30392 -0.4197,0.429135 -0.15512,0.12446 -0.31596,0.258917 -0.50682,0.31481 -0.18827,0.05513 -0.40013,0.06308 -0.58848,0.0082 -0.0952,-0.02775 -0.18179,-0.09018 -0.24878,-0.163347 -0.0668,-0.07294 -0.12562,-0.163584 -0.14038,-0.261371 -0.0243,-0.160986 0.0192,-0.334628 0.0938,-0.479337 0.076,-0.147399 0.23093,-0.238154 0.34231,-0.361022 0.50548,-0.557625 0.9744,-1.147619 1.47855,-1.706446 0.37013,-0.410273 0.6277,-0.988893 1.13482,-1.208325 1e-5,-3e-6 1e-5,3e-6 2e-5,0 z" id="SvgjsPath1264" sodipodi:nodetypes="aaaaaaaaaaaaaaaaaaaaaaaaaaaaaaaaaaaaaaaaaaaaaaaaaaaaaaaaaaaaaaaaaaaaaaaaaaaaaaaaaaaaaaaaaaaaaaaaaaaaaaaaaaaaaaaaaaaaaaaaaaaaaaaaaaaaaaaaaaaaaaaaaaaaaaaaaaaaaaaaaaaaaaaaaaaaaaaaaaaaaaaaaaaaa" transform="translate(-172.19691,6.7669739)"></path>
      <ellipse style="opacity:1;fill:#000000;fill-opacity:1;stroke:#000000;stroke-width:0.439169;stroke-linecap:round;stroke-linejoin:round;stroke-dasharray:none;stroke-opacity:1" id="SvgjsEllipse1263" cx="134.07704" cy="114.24158" rx="1.4493628" ry="3.0989077" transform="matrix(0.98791406,-0.15500264,0.14297351,0.98972652,0,0)"></ellipse>
    </g>
    <g id="SvgjsG1262" inkscape:label="R4" transform="matrix(-2.2511627,0.60941249,-0.60941249,-2.2511627,656.21868,659.51984)">
      <path style="opacity:1;fill:none;fill-opacity:1;stroke:#0074ba;stroke-width:1.672;stroke-linecap:square;stroke-linejoin:round;stroke-dasharray:none;stroke-opacity:1" d="m 88.721397,42.858356 2.790311,2.402929" id="SvgjsPath1261" sodipodi:nodetypes="cc"></path>
      <path style="opacity:1;fill:none;fill-opacity:1;stroke:#0074ba;stroke-width:1.672;stroke-linecap:square;stroke-linejoin:round;stroke-dasharray:none;stroke-opacity:1" d="m 91.087829,49.638099 0.786033,-3.358161" id="SvgjsPath1260" sodipodi:nodetypes="cc"></path>
      <path style="opacity:1;fill:none;fill-opacity:1;stroke:#0074ba;stroke-width:1.672;stroke-linecap:square;stroke-linejoin:round;stroke-dasharray:none;stroke-opacity:1" d="m 94.432415,44.010828 -2.00244,1.65444" id="SvgjsPath1259" sodipodi:nodetypes="cc"></path>
    </g>
    <g id="SvgjsG1258" inkscape:label="Text">
      <path d="m 5.39,36.14 v 1.35 H 4.04 v 1.36 H 2.68 v 4.05 h 1.36 v 1.35 h 1.35 v 1.35 h 5.4 v -1.35 h 1.35 V 42.9 h -2.7 v 1.35 H 6.74 V 42.9 H 5.39 v -4.05 h 1.35 v -1.36 h 2.7 v 1.36 h 2.7 v -1.36 h -1.35 v -1.35 z" style="display:inline;fill:#000000;fill-opacity:1;fill-rule:evenodd;stroke:none" id="SvgjsPath1257" clip-path="url(#clipPath1070-9-4)" transform="matrix(3.1095885,0,0,-3.1095885,93.768132,867.74403)"></path>
      <path d="M 17.55,41.55 H 18.9 V 40.2 h -1.35 v -4.06 h -2.7 v 6.76 h 2.7 z m 5.41,1.35 V 41.55 H 18.9 v 1.35 z" style="display:inline;fill:#000000;fill-opacity:1;fill-rule:evenodd;stroke:none" id="SvgjsPath1256" clip-path="url(#clipPath1064-0-2)" transform="matrix(3.1095885,0,0,-3.1095885,93.768132,867.74403)"></path>
      <path d="m 25.66,36.14 v 1.35 h -1.35 v 4.06 h 1.35 v 1.35 h 6.76 v -1.35 h 1.35 v -4.06 h -1.35 v -1.35 z m 1.35,1.35 h 4.06 v 4.06 h -4.06 z" style="display:inline;fill:#000000;fill-opacity:1;fill-rule:evenodd;stroke:none" id="SvgjsPath1255" clip-path="url(#clipPath1058-6-9)" transform="matrix(3.1095885,0,0,-3.1095885,93.768132,867.74403)"></path>
      <path d="m 35.12,36.14 v 1.35 h 6.76 v 1.36 h -5.41 v 1.35 h -1.35 v 1.35 h 1.35 v 1.35 h 6.76 V 41.55 H 37.82 V 40.2 h 5.41 v -1.35 h 1.35 v -1.36 h -1.35 v -1.35 z" style="display:inline;fill:#000000;fill-opacity:1;fill-rule:evenodd;stroke:none" id="SvgjsPath1254" clip-path="url(#clipPath1052-7-8)" transform="matrix(3.1095885,0,0,-3.1095885,93.768132,867.74403)"></path>
      <path d="m 45.93,36.14 v 1.35 h 6.76 v 1.36 h -5.41 v 1.35 h -1.35 v 1.35 h 1.35 v 1.35 h 6.76 v -1.35 h -5.4 V 40.2 h 5.4 v -1.35 h 1.35 v -1.36 h -1.35 v -1.35 z" style="display:inline;fill:#000000;fill-opacity:1;fill-rule:evenodd;stroke:none" id="SvgjsPath1253" clip-path="url(#clipPath1046-0-9)" transform="matrix(3.1095885,0,0,-3.1095885,93.768132,867.74403)"></path>
      <path d="m 60.8,36.14 v 8.11 h -2.7 v 1.35 h 8.1 v -1.35 h -2.7 v -8.11 z" style="display:inline;fill:#000000;fill-opacity:1;fill-rule:evenodd;stroke:none" id="SvgjsPath1252" clip-path="url(#clipPath1040-7-8)" transform="matrix(3.1095885,0,0,-3.1095885,93.768132,867.74403)"></path>
      <path d="m 68.91,36.14 v 1.35 h -1.35 v 1.36 h 1.35 v 1.35 h 5.4 v 1.35 h -5.4 v 1.35 h 6.76 v -1.35 h 1.35 v -5.41 z m 1.35,1.35 h 4.05 v 1.36 h -4.05 z" style="display:inline;fill:#000000;fill-opacity:1;fill-rule:evenodd;stroke:none" id="SvgjsPath1251" clip-path="url(#clipPath1034-2-1)" transform="matrix(3.1095885,0,0,-3.1095885,93.768132,867.74403)"></path>
      <path d="m 79.72,36.14 v 1.35 h 2.7 v 6.76 h -1.35 v 1.35 h 4.06 v -8.11 h 2.7 v -1.35 z" style="display:inline;fill:#000000;fill-opacity:1;fill-rule:evenodd;stroke:none" id="SvgjsPath1250" clip-path="url(#clipPath1028-9-9)" transform="matrix(3.1095885,0,0,-3.1095885,93.768132,867.74403)"></path>
      <path d="m 89.18,36.14 v 9.46 h 2.7 v -5.4 h 2.71 v 1.35 h 1.35 v 1.35 h 2.7 V 41.55 H 97.29 V 40.2 h -1.35 v -1.35 h 1.35 v -1.36 h 1.35 v -1.35 h -2.7 v 1.35 h -1.35 v 1.36 h -2.71 v -2.71 z" style="display:inline;fill:#000000;fill-opacity:1;fill-rule:evenodd;stroke:none" id="SvgjsPath1249" clip-path="url(#clipPath1022-6-8)" transform="matrix(3.1095885,0,0,-3.1095885,93.768132,867.74403)"></path>
      <path d="m 101.34,36.14 v 1.35 h -1.35 v 4.06 h 1.35 v 1.35 h 6.76 v -1.35 h 1.35 v -2.7 h -6.75 v -1.36 h 5.4 v -1.35 z m 1.36,4.06 h 4.05 v 1.35 h -4.05 z" style="display:inline;fill:#000000;fill-opacity:1;fill-rule:evenodd;stroke:none" id="SvgjsPath1248" clip-path="url(#clipPath1016-9-3)" transform="matrix(3.1095885,0,0,-3.1095885,93.768132,867.74403)"></path>
      <path d="m 110.8,36.14 v 9.46 h 8.11 v -1.35 h 1.36 V 40.2 h -2.71 v -1.35 h 1.35 v -1.36 h 1.36 v -1.35 h -4.06 v 1.35 h -1.35 v 1.36 h -1.35 v -2.71 z m 2.71,4.06 h 2.7 v 1.35 h 1.35 v 2.7 h -4.05 z" style="display:inline;fill:#000000;fill-opacity:1;fill-rule:evenodd;stroke:none" id="SvgjsPath1247" clip-path="url(#clipPath1010-9-4)" transform="matrix(3.1095885,0,0,-3.1095885,93.768132,867.74403)"></path>
    </g>
    <path sodipodi:type="star" style="fill:none;fill-opacity:1;stroke:#000db0;stroke-width:3.20047;stroke-linecap:square;stroke-linejoin:round;stroke-dasharray:none;stroke-opacity:1" id="SvgjsPath1246" inkscape:flatsided="true" sodipodi:sides="6" sodipodi:cx="-15.233307" sodipodi:cy="0.47818375" sodipodi:r1="109.47103" sodipodi:r2="94.804695" sodipodi:arg1="0.52613182" sodipodi:arg2="1.0497306" inkscape:rounded="0" inkscape:randomized="0" d="m 79.432436,55.453668 -94.943038,54.495192 -94.665738,-54.975481 0.27729,-109.470679 94.943038,-54.4952 94.665742,54.975488 z" transform="matrix(1.9966885,0,0,2.025443,317.50152,643.20574)"></path>
  </g>
</svg><style>@media (prefers-color-scheme: light) { :root { filter: none; } }
@media (prefers-color-scheme: dark) { :root { filter: none; } }
</style></svg>